<svg width="151" height="30" viewBox="0 0 718 140" fill="none" xmlns="http://www.w3.org/2000/svg">
<path d="M46.3999 48H3.3999V91H20.2999C20.2999 90.5 20.1999 89.6 20.1999 89C21.2999 78.7 27.7999 69.8 37.2999 65.5C43.4999 62.4 48.7999 60.1 55.0999 57.5C61.3999 54.9 66.6999 52.6 72.8999 49.5C82.3999 45.3 88.8999 36.3 89.9999 26C89.9999 17.3 84.2999 9.70001 75.9999 7.20001C70.3999 5.60001 64.5999 4.80001 58.7999 5.00001H46.3999V48Z" fill="#00A9A0"/>
<path d="M62.8001 89.5C69.0001 86.4 74.3001 84.1 80.6001 81.5C86.9001 78.9 92.2001 76.6 98.4001 73.5C107.9 69.3 114.4 60.3 115.5 50C115.5 49.4 115.5 48.6 115.4 48H132.3V91H89.3001V134H76.9001C71.1001 134.1 65.3001 133.4 59.7001 131.8C59.4001 131.7 59.2001 131.6 58.9001 131.5C58.7001 131.4 58.5001 131.3 58.2001 131.2L58.0001 131.1C57.8001 131 57.6001 131 57.5001 130.9C57.4001 130.9 57.4001 130.8 57.3001 130.8C57.2001 130.7 57.0001 130.7 56.8001 130.6C56.7001 130.6 56.6001 130.5 56.5001 130.5C56.4001 130.4 56.2001 130.4 56.1001 130.3C56.0001 130.3 55.9001 130.2 55.8001 130.1L55.4001 129.9C55.3001 129.8 55.2001 129.8 55.1001 129.7L54.8001 129.5L54.5001 129.3L54.2001 129.1C54.1001 129 53.9001 128.9 53.8001 128.8L53.7001 128.7C53.1001 128.2 52.5001 127.7 51.9001 127.2C51.6001 127 51.4001 126.7 51.2001 126.5C51.0001 126.3 50.9001 126.2 50.7001 126C50.6001 125.8 50.4001 125.7 50.3001 125.5L50.1001 125.3L50.0001 125.2C47.1001 121.8 45.6001 117.4 45.6001 112.9C46.9001 102.6 53.4001 93.7 62.8001 89.5Z" fill="#00A499"/>
<path d="M94.2001 69.5C88.0001 72.6 82.7001 74.9 76.4001 77.5C70.1001 80.1 64.8001 82.4 58.6001 85.5C49.1001 89.7 42.6001 98.7 41.5001 109C41.5001 111.9 42.1001 114.8 43.4001 117.5L40.0001 113.6C39.1001 111.3 38.6001 108.8 38.6001 106.3C39.7001 96 46.2001 87.1 55.7001 82.8C61.9001 79.7 67.2001 77.4 73.5001 74.8C79.8001 72.2 85.1001 69.9 91.3001 66.8C100.8 62.6 107.3 53.6 108.4 43.3C108.4 42.2 108.3 41 108.1 39.9L111 43.3C111.1 44.2 111.2 45.1 111.2 46C110.2 56.4 103.7 65.3 94.2001 69.5Z" fill="#00A499"/>
<path d="M87.1 62.8C80.9 65.9 75.6 68.2 69.3 70.8C63 73.4 57.7 75.7 51.5 78.8C42 83 35.5 92 34.4 102.3C34.4 104.2 34.7 106.2 35.2 108L32.1 104.5C31.7 102.9 31.5 101.3 31.5 99.7C32.6 89.4 39.1 80.5 48.6 76.2C54.8 73.1 60.1 70.8 66.4 68.2C72.7 65.6 78 63.3 84.2 60.2C93.7 56 100.2 47 101.3 36.7C101.3 34.9 101.1 33 100.5 31.2L103.5 34.7C103.9 36.2 104 37.7 104 39.3C103.1 49.6 96.5 58.6 87.1 62.8Z" fill="#00A499"/>
<path d="M80 56.1C73.8 59.2 68.5 61.5 62.2 64.1C55.9 66.7 50.6 69 44.4 72.1C34.9 76.3 28.4 85.3 27.3 95.6C27.3 96.8 27.4 98 27.6 99.2L24.7 95.8C24.6 94.8 24.5 93.9 24.5 92.9C25.6 82.6 32.1 73.7 41.6 69.4C47.8 66.3 53.1 64 59.4 61.4C65.7 58.8 71 56.5 77.2 53.4C86.7 49.2 93.2 40.2 94.3 29.9C94.3 27.1 93.7 24.3 92.5 21.7L95.7 25.4L95.8 25.5C96.7 27.7 97.1 30.1 97.1 32.5C95.9 42.9 89.4 51.8 80 56.1Z" fill="#00A499"/>
<path d="M40.1 127.7C40.1 131.2 37.3 134 33.8 134C30.3 134 27.5 131.2 27.5 127.7C27.5 124.2 30.3 121.4 33.8 121.4C37.2 121.4 40 124.1 40.1 127.5C40.1 127.6 40.1 127.6 40.1 127.7ZM28.5 127.7C28.5 130.6 31 133 33.9 132.9C36.8 132.9 39.2 130.4 39.1 127.5C39.1 124.6 36.7 122.3 33.8 122.3C30.9 122.3 28.5 124.6 28.5 127.5C28.5 127.5 28.5 127.6 28.5 127.7ZM32.4 131.3H31.5V124H34.3C35.9 124 36.7 124.7 36.7 126C36.7 127.1 35.9 128 34.9 128L37.1 131.2H36.1L34 128H32.5L32.4 131.3ZM33.6 127.3C34.7 127.3 35.8 127.3 35.8 126C35.8 125 35 124.7 34.1 124.7H32.5V127.2H33.6V127.3Z" fill="#00A499"/>
<path d="M180.1 69.1C180.1 78.1 187.1 81.6 195 81.6C200.2 81.6 208.1 80.1 208.1 73.2C208.1 65.9 198 64.7 188.1 62C178.1 59.4 168 55.5 168 42.8C168 29 181 22.4 193.2 22.4C207.3 22.4 220.2 28.5 220.2 44.1H205.8C205.3 36 199.6 33.9 192.5 33.9C187.8 33.9 182.3 35.9 182.3 41.6C182.3 46.8 185.5 47.5 202.4 51.8C207.3 53 222.4 56.1 222.4 71.5C222.4 83.9 212.7 93.1 194.3 93.1C179.4 93.1 165.4 85.7 165.6 69.1H180.1Z" fill="#00A9A0"/>
<path d="M273.8 91.5H261V84.7H260.7C257.5 89.8 251.8 92.9 245.8 92.8C231.5 92.8 227.9 84.8 227.9 72.7V42.7H241.3V70.3C241.3 78.3 243.7 82.3 249.9 82.3C257.2 82.3 260.3 78.2 260.3 68.3V42.6H273.7V91.5H273.8Z" fill="#00A9A0"/>
<path d="M299.1 42.6H308.9V51.6H299.1V75.8C299.1 80.3 300.2 81.5 304.8 81.5C306.2 81.5 307.6 81.4 309 81.1V91.6C306.4 92 303.8 92.1 301.2 92.1C293 92.1 285.8 90.2 285.8 80.5V51.6H277.7V42.6H285.8V27.9H299.2V42.6H299.1Z" fill="#00A9A0"/>
<path d="M330.5 42.6H340.3V51.6H330.5V75.8C330.5 80.3 331.6 81.5 336.2 81.5C337.6 81.5 339 81.4 340.4 81.1V91.6C337.8 92 335.2 92.1 332.6 92.1C324.4 92.1 317.2 90.2 317.2 80.5V51.6H309V42.6H317.1V27.9H330.5V42.6Z" fill="#00A9A0"/>
<path d="M355.9 70.3C356.3 78.8 360.4 82.7 367.9 82.7C372.4 82.9 376.6 80.4 378.5 76.4H390.3C387.7 86.7 378 93.6 367.4 92.8C354.2 93.4 343 83.3 342.4 70.1C342.4 69.1 342.4 68.1 342.4 67.1C341.7 53.6 352.1 42 365.6 41.3C366.2 41.3 366.8 41.3 367.4 41.3C384 41.3 392.1 55.3 391.1 70.3H355.9ZM377.8 61.8C376.6 55 373.6 51.4 367.1 51.4C361.3 51.1 356.3 55.6 356 61.4C356 61.5 356 61.7 356 61.8H377.8Z" fill="#00A9A0"/>
<path d="M396.9 42.6H409.7V51.7H409.9C412.6 45.5 418.7 41.4 425.5 41.3C426.5 41.3 427.5 41.5 428.4 41.8V54.3C426.8 54 425.2 53.8 423.6 53.8C413.8 53.8 410.4 60.9 410.4 69.5V91.5H397V42.6H396.9Z" fill="#00A9A0"/>
<path d="M446.7 24H461.5V49.9H488.8V24H503.6V91.5H488.8V62.4H461.5V91.5H446.7V24Z" fill="#00A9A0"/>
<path d="M522.9 70.3C523.3 78.8 527.4 82.7 534.9 82.7C539.4 82.9 543.6 80.4 545.5 76.4H557.3C554.7 86.7 545 93.6 534.4 92.8C521.2 93.4 510 83.3 509.4 70.1C509.4 69.1 509.4 68.1 509.4 67.1C508.7 53.6 519.1 42 532.6 41.3C533.2 41.3 533.8 41.3 534.4 41.3C551 41.3 559.1 55.3 558.1 70.3H522.9ZM544.8 61.8C543.6 55 540.6 51.4 534.1 51.4C528.3 51.1 523.3 55.6 523 61.4C523 61.5 523 61.7 523 61.8H544.8Z" fill="#00A9A0"/>
<path d="M563.1 57.6C563.9 45 575.1 41.3 586.1 41.3C595.8 41.3 607.6 43.5 607.6 55.2V80.6C607.4 84.3 607.9 88 609.3 91.5H595.7C595.2 90 594.9 88.4 594.8 86.8C590.4 91 584.4 93.2 578.4 92.9C569.1 92.9 561.8 88.3 561.8 78.3C561.8 67.2 570.1 64.6 578.4 63.5C586.6 62.3 594.3 62.6 594.3 57.1C594.3 51.3 590.3 50.5 585.6 50.5C580.5 50.5 577.2 52.6 576.7 57.9L563.1 57.6ZM594.1 67.5C590.6 69.2 586.8 70.2 583 70.3C578.8 71.1 575.1 72.6 575.1 77.5C575.1 82.5 579 83.7 583.3 83.7C588.8 84.2 593.7 80.2 594.2 74.8C594.3 74 594.3 73.3 594.2 72.5L594.1 67.5Z" fill="#00A9A0"/>
<path d="M615.8 24H629.2V91.5H615.8V24Z" fill="#00A9A0"/>
<path d="M654.4 42.6H664.2V51.6H654.4V75.8C654.4 80.3 655.5 81.5 660.1 81.5C661.5 81.5 662.9 81.4 664.3 81.1V91.6C661.7 92 659.1 92.1 656.5 92.1C648.3 92.1 641.1 90.2 641.1 80.5V51.6H633V42.6H641.1V27.9H654.5V42.6H654.4Z" fill="#00A9A0"/>
<path d="M668.2 24H681.6V49.4H681.9C685 44.4 690.3 41.4 696.2 41.3C710.5 41.3 714.1 49.3 714.1 61.4V91.4H700.7V63.9C700.7 55.9 698.3 51.9 692.1 51.9C684.8 51.9 681.7 56 681.7 65.9V91.5H668.3V24H668.2Z" fill="#00A9A0"/>
</svg>
